HIERARCHY
ROOT Hips
{
	OFFSET 0.00000 0.00000 0.00000
	CHANNELS 6 Xposition Yposition Zposition Zrotation Yrotation Xrotation 
	JOINT LHipJoint
	{
		OFFSET 0 0 0
		CHANNELS 3 Zrotation Yrotation Xrotation
		JOINT LeftHip
		{
			OFFSET 1.53139 -1.83434 0.76626
			CHANNELS 3 Zrotation Yrotation Xrotation
			JOINT LeftKnee
			{
				OFFSET 2.56112 -7.03663 0.00000
				CHANNELS 3 Zrotation Yrotation Xrotation
				JOINT LeftAnkle
				{
					OFFSET 2.59983 -7.14299 0.00000
					CHANNELS 3 Zrotation Yrotation Xrotation
					JOINT LeftToe
					{
						OFFSET 0.13742 -0.37757 2.00054
						CHANNELS 3 Zrotation Yrotation Xrotation
						End Site
						{
							OFFSET 0.00000 -0.00000 1.02897
						}
					}
				}
			}
		}
	}
	JOINT RHipJoint
	{
		OFFSET 0 0 0
		CHANNELS 3 Zrotation Yrotation Xrotation
		JOINT RightHip
		{
			OFFSET -1.40122 -1.83435 0.76627
			CHANNELS 3 Zrotation Yrotation Xrotation
			JOINT RightKnee
			{
				OFFSET -2.54052 -6.98003 0.00000
				CHANNELS 3 Zrotation Yrotation Xrotation
				JOINT RightAnkle
				{
					OFFSET -2.63179 -7.23079 0.00000
					CHANNELS 3 Zrotation Yrotation Xrotation
					JOINT RightToe
					{
						OFFSET -0.24131 -0.66299 2.03908
						CHANNELS 3 Zrotation Yrotation Xrotation
						End Site
						{
							OFFSET -0.00000 -0.00000 1.07391
						}
					}
				}
			}
		}
	}
	JOINT lowerback
	{
		OFFSET 0 0 0
		CHANNELS 3 Zrotation Yrotation Xrotation
		JOINT Chest
		{
			OFFSET 0.01174 2.10302 -0.29778
			CHANNELS 3 Zrotation Yrotation Xrotation
			JOINT Chest2
			{
				OFFSET 0.00772 2.13227 -0.01247
				CHANNELS 3 Zrotation Yrotation Xrotation
				JOINT lowerneck
				{
					OFFSET 0 0 0
					CHANNELS 3 Zrotation Yrotation Xrotation
					JOINT Neck
					{
						OFFSET -0.09219 1.60848 0.31481
						CHANNELS 3 Zrotation Yrotation Xrotation
						JOINT Head
						{
							OFFSET 0.13974 1.65456 -0.31134
							CHANNELS 3 Zrotation Yrotation Xrotation
							End Site
							{
								OFFSET 0.04742 1.69515 -0.14578
							}
						}
					}
				}
				JOINT LeftCollar
				{
					OFFSET 0 0 0
					CHANNELS 3 Zrotation Yrotation Xrotation
					JOINT LeftShoulder
					{
						OFFSET 3.24909 1.02882 -0.23993
CHANNELS 3 Zrotation Xrotation Yrotation
						JOINT LeftElbow
						{
OFFSET 0 -5.329550 -0.000000
CHANNELS 3 Zrotation Xrotation Yrotation
							JOINT LeftWrist
							{
OFFSET 0 -3.692320 -0.000000
CHANNELS 3 Zrotation Xrotation Yrotation
								JOINT lhand
								{
									OFFSET 0 0 0
CHANNELS 3 Zrotation Xrotation Yrotation
									JOINT LFingers
									{
OFFSET 0 -0.536600 -0.000000
CHANNELS 3 Zrotation Xrotation Yrotation
										End Site
										{
OFFSET 0 -0.432620 -0.000000
										}
									}
								}
								JOINT LThumb
								{
OFFSET 0 0.000000 0.000000
CHANNELS 3 Zrotation Xrotation Yrotation
									End Site
									{
OFFSET 0 -0.439220 0.439220
									}
								}
							}
						}
					}
				}
				JOINT RightCollar
				{
					OFFSET 0 0 0
					CHANNELS 3 Zrotation Yrotation Xrotation
					JOINT RightShoulder
					{
						OFFSET -3.21387 0.93002 -0.34594
CHANNELS 3 Zrotation Xrotation Yrotation
						JOINT RightElbow
						{
OFFSET 0 -5.234310 0.000000
CHANNELS 3 Zrotation Xrotation Yrotation
							JOINT RightWrist
							{
OFFSET 0 -3.553010 -0.000000
CHANNELS 3 Zrotation Xrotation Yrotation
								JOINT rhand
								{
									OFFSET 0 0 0
CHANNELS 3 Zrotation Xrotation Yrotation
									JOINT RFingers
									{
OFFSET 0 -0.772520 -0.000000
CHANNELS 3 Zrotation Xrotation Yrotation
										End Site
										{
OFFSET 0 -0.622830 -0.000000
										}
									}
								}
								JOINT RThumb
								{
OFFSET 0 0.000000 0.000000
CHANNELS 3 Zrotation Xrotation Yrotation
									End Site
									{
OFFSET 0 -0.632340 0.632340
									}
								}
							}
						}
					}
				}
			}
		}
	}
}
MOTION
Frames: 11
Frame Time: 0.008333333333333333
-16.071500 17.793300 12.603600 2.383900 32.617700 4.935200 0.000000 0.000000 0.000000 -20.918400 -7.272900 -12.986000 1.914000 8.684500 24.813300 0.332300 -2.391000 -10.324400 0.018300 -0.872900 -2.399300 0.000000 0.000000 0.000000 18.638900 6.613100 -10.557400 -2.832600 -10.419000 30.344600 -1.068300 7.113200 -18.456700 -0.006800 -0.530900 1.458700 -6.404900 -1.598100 7.926400 -1.592900 -2.746000 0.448600 2.235000 -1.257500 -3.759400 -20.302300 -17.304900 -0.453900 11.943000 -25.255000 22.364500 4.048900 -12.508700 11.540800 -0.000000 0.000000 0.000000 4.447300 -2.914500 -22.698400 14.651000 -23.657600 3.084500 21.415700 16.716200 -23.107500 0.000000 0.000000 0.000000 -7.125000 0.000000 0.000000 -8.155200 54.419000 1.897000 -0.000000 0.000000 0.000000 2.239400 -2.087400 20.058800 -11.648600 -19.275600 -1.984800 -13.627900 13.109100 -8.795400 0.000000 0.000000 0.000000 7.125000 0.000000 -0.000000 9.543300 20.986200 5.568800
-16.363799 17.813515 12.545414 1.701421 34.058474 4.874629 0.000000 0.000000 0.000000 -19.362239 -9.390009 -13.997577 2.028749 8.925705 25.563183 0.310377 -1.718403 -10.064541 0.000000 -0.012982 -0.035648 0.000000 0.000000 0.000000 19.896544 4.477191 -11.878616 -2.660581 -10.124117 29.379754 -0.933300 7.844974 -17.301274 -0.001582 -0.232562 0.638997 -5.561712 -1.631704 8.678174 -1.120021 -2.746312 0.555671 2.283323 -1.261675 -4.083396 -20.054991 -16.762508 -2.091668 12.601058 -24.366963 22.335602 4.295832 -11.943710 11.732486 0.000000 0.000000 0.000000 3.837695 -2.787881 -22.240651 15.017113 -24.169962 3.232958 21.425897 15.172892 -23.580611 0.000000 0.000000 0.000000 -7.125000 0.000000 0.000000 -8.330662 54.908123 2.037995 0.000000 0.000000 0.000000 1.327900 -2.665831 20.739130 -11.764697 -19.450694 -2.023394 -12.987563 12.564796 -8.573758 0.000000 0.000000 0.000000 7.125000 0.000000 0.000000 10.011485 21.237697 5.792471
-16.622162 17.819767 12.464395 1.567698 36.507544 4.691620 0.000000 0.000000 0.000000 -18.496039 -11.736149 -14.526060 2.142020 9.155813 26.284066 0.328059 -1.712334 -10.357486 0.030612 1.125499 3.094247 0.000000 0.000000 0.000000 20.656674 4.193725 -12.375301 -2.657529 -10.118892 29.362601 -0.909611 6.775946 -17.021741 -0.040191 -1.289600 3.546156 -4.645599 -1.809658 9.791598 -0.704438 -2.926752 0.840446 2.264335 -1.358524 -4.416724 -18.258118 -14.610000 -6.069985 10.968406 -20.699810 25.856900 3.954266 -10.045531 12.745458 0.000000 0.000000 0.000000 3.681983 -3.453180 -25.590436 14.844985 -23.929691 3.162833 20.409294 16.381563 -23.651494 0.000000 0.000000 0.000000 -7.125000 0.000000 0.000000 -9.410457 54.779585 2.275467 0.000000 0.000000 0.000000 0.021029 -2.961738 22.602023 -13.472763 -21.975830 -2.627587 -13.623859 9.380166 -8.629927 0.000000 0.000000 0.000000 7.125000 0.000000 0.000000 9.552787 21.153986 5.537736
-16.760584 17.807340 12.375486 1.573520 37.443697 4.007843 0.000000 0.000000 0.000000 -18.425384 -12.038370 -14.884191 2.375752 9.608397 27.717651 0.356905 -3.600399 -10.627658 0.042172 -1.321768 -3.634759 0.000000 0.000000 0.000000 20.845371 3.617723 -12.352801 -2.678014 -10.154579 29.478713 -0.896195 6.383905 -16.884812 -0.004196 -0.417118 1.146184 -3.417807 -1.319574 10.196370 -0.205573 -2.121733 1.290442 1.996842 -0.987299 -4.252927 -15.128030 -10.534322 -11.330997 8.045711 -14.079788 32.499118 3.484821 -6.869148 14.924150 0.000000 0.000000 0.000000 2.305906 -3.687043 -27.010062 15.226655 -24.460916 3.319223 20.531627 17.612591 -23.355130 0.000000 0.000000 0.000000 -7.125000 0.000000 0.000000 -9.163134 54.500885 2.152607 0.000000 0.000000 0.000000 -1.576851 -3.389457 21.139082 -14.687664 -23.709150 -3.099246 -14.760810 7.331730 -8.868816 0.000000 0.000000 0.000000 7.125000 0.000000 0.000000 8.728917 20.859089 5.107357
-16.768584 17.813827 12.290854 2.287030 37.343866 3.554378 0.000000 0.000000 0.000000 -19.665262 -11.708256 -14.061800 2.434372 9.717627 28.067008 0.179898 -4.802338 -7.761032 0.068319 -1.682612 -4.629394 0.000000 0.000000 0.000000 19.999535 2.618282 -11.919184 -2.669158 -10.139256 29.428807 -0.873653 7.106338 -16.700061 -0.000814 0.189014 -0.519414 -2.089745 -0.289728 9.975502 -0.004976 -0.584269 1.743540 1.246769 -0.255251 -3.756534 -12.042899 -6.189994 -13.992899 6.038375 -7.375875 37.467754 3.493639 -3.807614 16.598257 0.000000 0.000000 0.000000 1.237187 -2.970501 -29.262774 16.312345 -25.942224 3.781573 19.566735 14.413525 -22.001752 0.000000 0.000000 0.000000 -7.125000 0.000000 0.000000 -9.613343 52.936740 1.891033 0.000000 0.000000 0.000000 -3.045854 -4.054028 17.815802 -14.893475 -23.997504 -3.182502 -15.711843 6.864865 -9.001342 0.000000 0.000000 0.000000 7.125000 0.000000 0.000000 8.043654 20.676164 4.731661
-16.713099 17.805160 12.204412 2.804302 37.848609 3.563069 0.000000 0.000000 0.000000 -20.110850 -9.890584 -14.047313 2.252234 9.372741 26.968390 0.181471 -7.268805 -8.527553 0.086235 -1.893921 -5.212579 0.000000 0.000000 0.000000 19.068359 1.744670 -12.305528 -2.782546 -10.334468 30.066775 -0.917872 7.848717 -17.162001 -0.003889 0.399426 -1.097482 -0.551961 0.424454 9.446817 0.196803 0.536471 1.714072 0.447005 0.280264 -3.521756 -10.435904 -3.045925 -14.462441 5.670828 -2.713290 40.200481 4.059974 -1.690802 17.489505 0.000000 0.000000 0.000000 0.583448 -1.783036 -30.739677 17.196895 -27.116576 4.176686 20.210166 15.196526 -25.194363 0.000000 0.000000 0.000000 -7.125000 0.000000 0.000000 -10.299185 56.307337 2.878590 0.000000 0.000000 0.000000 -4.238137 -3.875931 14.889860 -15.186930 -24.405806 -3.302896 -14.982473 6.776346 -8.373417 0.000000 0.000000 0.000000 7.125000 0.000000 0.000000 8.585224 21.354573 4.923882
-16.651090 17.815527 12.091039 3.545667 39.542537 3.705616 0.000000 0.000000 0.000000 -19.487057 -8.094954 -14.100168 2.166255 9.204131 26.435948 -0.068091 -12.896583 -8.140840 0.104330 -2.075887 -5.715756 0.000000 0.000000 0.000000 18.029010 1.136039 -12.177343 -2.815462 -10.390201 30.249715 -0.947835 7.124465 -17.387414 -0.003529 0.370536 -1.018129 -0.160716 0.559349 9.345147 0.634896 0.772154 1.748742 0.653715 0.396102 -3.433888 -9.211270 -0.922222 -14.423009 4.641018 0.713839 40.956876 4.025390 -0.223051 17.466105 0.000000 0.000000 0.000000 0.174577 -1.026986 -30.073313 16.997814 -26.854822 4.086317 19.920920 14.158461 -23.441750 0.000000 0.000000 0.000000 -7.125000 0.000000 0.000000 -9.826377 54.470315 2.304160 0.000000 0.000000 0.000000 -5.504032 -3.624773 14.086841 -15.346516 -24.626588 -3.369008 -15.893253 5.604000 -8.921444 0.000000 0.000000 0.000000 7.125000 0.000000 0.000000 7.915397 20.748857 4.641596
-16.536540 17.857247 11.950733 4.342097 41.119384 3.612922 0.000000 0.000000 0.000000 -17.208914 -8.746630 -12.507324 2.179251 9.229850 26.517015 0.156078 -6.431036 -7.792386 0.012229 -0.698572 -1.919775 0.000000 0.000000 0.000000 16.972115 0.872453 -10.536756 -2.544156 -9.917698 28.710700 -0.917659 4.951430 -17.119738 -0.044293 1.353931 -3.723337 0.012828 0.524582 9.414774 0.737272 0.749192 1.873650 0.664907 0.384272 -3.341806 -8.709175 0.670385 -14.556600 4.607899 3.148811 41.483108 4.384530 0.855280 17.529988 0.000000 0.000000 0.000000 0.371995 -0.910552 -27.722357 15.755573 -25.188096 3.541343 18.207754 15.363003 -21.918906 0.000000 0.000000 0.000000 -7.125000 0.000000 0.000000 -10.940440 52.607945 2.069404 0.000000 0.000000 0.000000 -5.650005 -3.828691 12.483478 -14.959156 -24.089208 -3.209252 -15.688384 6.399131 -8.723241 0.000000 0.000000 0.000000 7.125000 0.000000 0.000000 8.067216 20.962771 4.693110
-16.353298 17.920412 11.779485 4.975384 42.404836 3.355706 0.000000 0.000000 0.000000 -13.718357 -10.213743 -9.767081 1.993317 8.852105 25.333834 0.086463 -4.078332 -5.565011 0.000455 -0.143499 -0.394201 0.000000 0.000000 0.000000 15.796746 1.204323 -8.491685 -2.278447 -9.423459 27.129260 -0.865093 2.998123 -16.819685 -0.045295 1.371186 -3.770664 0.129910 0.568678 9.644711 0.651465 0.818409 1.861940 0.499360 0.417664 -3.479354 -7.937882 2.255361 -14.558072 5.095090 5.269101 42.136025 4.882223 1.915283 17.658855 0.000000 0.000000 0.000000 0.982726 -0.626970 -26.227452 14.672555 -23.688006 3.093233 19.758405 15.429960 -20.269508 0.000000 0.000000 0.000000 -7.125000 0.000000 0.000000 -8.807090 51.196491 1.353025 0.000000 0.000000 0.000000 -5.267774 -3.371032 11.815025 -14.794023 -23.858433 -3.142138 -14.964070 6.587129 -8.415441 0.000000 0.000000 0.000000 7.125000 0.000000 0.000000 8.597004 21.312544 4.939243
-16.071415 17.943190 11.540186 5.490675 43.000413 3.190009 0.000000 0.000000 0.000000 -10.477876 -11.829477 -6.946969 1.836654 8.517112 24.296119 0.002226 -2.657829 -1.993217 0.001674 -0.252487 -0.693828 0.000000 0.000000 0.000000 14.190408 1.557627 -6.692523 -2.046812 -8.962835 25.679094 -0.835238 2.109913 -16.683916 -0.056095 1.527940 -4.202824 0.447992 0.909896 9.732557 0.562907 1.300990 1.801235 0.166413 0.652883 -3.585895 -7.316220 3.860391 -14.181013 5.467775 7.520317 42.759703 5.346154 3.002237 17.669616 0.000000 0.000000 0.000000 0.969235 -0.781639 -24.010510 14.083460 -22.853932 2.860478 18.927792 16.856028 -23.121481 0.000000 0.000000 0.000000 -7.125000 0.000000 0.000000 -10.705132 53.955370 2.378501 0.000000 0.000000 0.000000 -5.180977 -2.285922 11.794049 -15.089170 -24.270192 -3.262527 -15.364938 6.505569 -8.670132 0.000000 0.000000 0.000000 7.125000 0.000000 0.000000 8.301166 21.033153 4.818639
-15.694365 17.917547 11.219487 5.724149 42.213105 3.132479 0.000000 0.000000 0.000000 -8.247401 -12.262996 -4.870396 1.605115 7.989786 22.683096 -0.003140 -1.007876 0.555582 0.011135 0.673043 1.849627 0.000000 0.000000 0.000000 12.114757 1.983976 -6.211378 -1.986252 -8.837380 25.287935 -0.805484 2.456180 -16.303986 -0.174733 2.690614 -7.418562 0.725796 1.769954 9.718334 0.137741 2.452389 1.698393 -0.576231 1.217233 -3.654251 -5.608002 5.053917 -13.745562 5.410758 8.913160 43.062306 5.250868 3.856790 17.685619 0.000000 0.000000 0.000000 1.763185 -0.338053 -23.432947 14.642282 -23.645418 3.081068 20.966312 17.749332 -23.870514 0.000000 0.000000 0.000000 -7.125000 0.000000 0.000000 -8.925197 55.114029 2.229687 0.000000 0.000000 0.000000 -4.698816 -1.339630 11.454222 -15.245303 -24.486771 -3.326968 -15.104379 6.464560 -8.492722 0.000000 0.000000 0.000000 7.125000 0.000000 0.000000 8.493553 21.226948 4.895128
